<svg width="40" height="35" viewBox="0 0 40 35" fill="none" xmlns="http://www.w3.org/2000/svg">
<path d="M7.74194 34.258C12.0177 34.258 15.4839 30.7919 15.4839 26.5161C15.4839 22.2404 12.0177 18.7742 7.74194 18.7742C3.46618 18.7742 0 22.2404 0 26.5161C0 30.7919 3.46618 34.258 7.74194 34.258Z" fill="#A4B375"/>
<path d="M32.258 34.258C36.5338 34.258 40 30.7919 40 26.5161C40 22.2404 36.5338 18.7742 32.258 18.7742C27.9823 18.7742 24.5161 22.2404 24.5161 26.5161C24.5161 30.7919 27.9823 34.258 32.258 34.258Z" fill="#A4B375"/>
<path fill-rule="evenodd" clip-rule="evenodd" d="M23.5326 6.9054C24.0866 6.9914 24.579 7.30591 24.8899 7.77232L27.737 12.043H31.828C32.9325 12.043 33.828 12.9384 33.828 14.043C33.828 15.1476 32.9325 16.043 31.828 16.043H26.6667C25.998 16.043 25.3735 15.7088 25.0026 15.1524L22.7718 11.8062L17.6179 15.9293L21.1992 19.5105C21.5742 19.8856 21.785 20.3943 21.785 20.9247V27.8065C21.785 28.911 20.8895 29.8065 19.785 29.8065C18.6804 29.8065 17.785 28.911 17.785 27.8065V21.7532L13.2094 17.1777C12.8072 16.7754 12.5953 16.2209 12.6267 15.6528C12.6582 15.0848 12.93 14.5571 13.3743 14.2017L21.9764 7.31999C22.4141 6.96981 22.9787 6.8194 23.5326 6.9054Z" fill="#A4B375"/>
<path d="M28.3871 5.44086C29.3372 5.44086 30.1075 4.6706 30.1075 3.72043C30.1075 2.77026 29.3372 2 28.3871 2C27.4369 2 26.6666 2.77026 26.6666 3.72043C26.6666 4.6706 27.4369 5.44086 28.3871 5.44086Z" fill="#A4B375"/>
<path fill-rule="evenodd" clip-rule="evenodd" d="M28.3871 4C28.5415 4 28.6666 3.87483 28.6666 3.72043C28.6666 3.56603 28.5415 3.44086 28.3871 3.44086C28.2327 3.44086 28.1075 3.56603 28.1075 3.72043C28.1075 3.87483 28.2327 4 28.3871 4ZM24.6666 3.72043C24.6666 1.66569 26.3323 0 28.3871 0C30.4418 0 32.1075 1.66569 32.1075 3.72043C32.1075 5.77517 30.4418 7.44086 28.3871 7.44086C26.3323 7.44086 24.6666 5.77517 24.6666 3.72043Z" fill="#A4B375"/>
<path fill-rule="evenodd" clip-rule="evenodd" d="M9.03223 14.6129C9.03223 15.1652 8.58451 15.6129 8.03223 15.6129L3.58061 15.6129C3.02833 15.6129 2.58061 15.1652 2.58061 14.6129C2.58061 14.0606 3.02833 13.6129 3.58061 13.6129L8.03223 13.6129C8.58451 13.6129 9.03223 14.0606 9.03223 14.6129Z" fill="#A4B375"/>
<path fill-rule="evenodd" clip-rule="evenodd" d="M12.9032 10.7419C12.9032 11.2942 12.4555 11.7419 11.9032 11.7419L7.45159 11.7419C6.8993 11.7419 6.45159 11.2942 6.45159 10.7419C6.45158 10.1897 6.8993 9.74194 7.45158 9.74194L11.9032 9.74194C12.4555 9.74194 12.9032 10.1897 12.9032 10.7419Z" fill="#A4B375"/>
<path fill-rule="evenodd" clip-rule="evenodd" d="M9.03223 6.87097C9.03223 7.42326 8.58451 7.87097 8.03223 7.87097L3.58061 7.87097C3.02833 7.87097 2.58061 7.42326 2.58061 6.87097C2.58061 6.31869 3.02833 5.87097 3.58061 5.87097L8.03223 5.87097C8.58451 5.87097 9.03223 6.31869 9.03223 6.87097Z" fill="#A4B375"/>
</svg>
